<svg width="32" height="32" viewBox="0 0 32 32" fill="none" xmlns="http://www.w3.org/2000/svg">
<rect x="0.000488281" width="32" height="32" rx="5" fill="#1B1718"/>
<path d="M0 4.99994C0 2.23852 2.23858 -6.10352e-05 5 -6.10352e-05H16.2305C21.0119 -6.10352e-05 23.0659 6.06723 19.2677 8.97172L13.9629 13.0284C13.6114 13.2972 13.2972 13.6114 13.0284 13.9629L8.97178 19.2677C6.06729 23.0658 0 21.0118 0 16.2304V4.99994Z" fill="#008DDA"/>
<path d="M15.7696 32C10.9882 32 8.93417 25.9327 12.7323 23.0282L18.0371 18.9716C18.3886 18.7028 18.7028 18.3886 18.9716 18.0371L23.0282 12.7323C25.9327 8.93417 32 10.9882 32 15.7696V27C32 29.7614 29.7614 32 27 32H15.7696Z" fill="#00BCFF"/>
</svg>
